<svg xmlns="http://www.w3.org/2000/svg" width="394.994" height="236.134" viewBox="0 0 394.994 236.134">
  <g id="Group_22904" data-name="Group 22904" transform="translate(0 0)">
    <path id="Path_106" data-name="Path 106" d="M822.132,613.275C817.075,609,814,602.251,814.809,595.68s5.795-12.613,12.267-14.008,13.849,2.467,15.815,8.789c1.082-12.189,2.328-24.888,8.809-35.268a37.351,37.351,0,0,1,27.045-17.327c11.014-1.2,22.611,3.341,29.48,12.034s8.551,21.332,3.74,31.313c-3.544,7.353-10.074,12.825-16.915,17.276a109.169,109.169,0,0,1-74.665,16.334Z" transform="translate(-519.715 -379.793)" fill="#f2f2f2"/>
    <path id="Path_107" data-name="Path 107" d="M932.981,545.709a180.133,180.133,0,0,0-52.928,71.57c-.5,1.237,1.5,1.776,2,.552a178.132,178.132,0,0,1,52.394-70.653c1.037-.844-.44-2.307-1.469-1.469Z" transform="translate(-555.363 -384.042)" fill="#fff"/>
    <path id="Path_108" data-name="Path 108" d="M292.155,576.762c6.946-5.869,11.165-15.141,10.058-24.166s-7.959-17.323-16.848-19.24-19.022,3.389-21.722,12.072c-1.486-16.741-3.2-34.184-12.1-48.44-8.059-12.909-22.018-22.146-37.147-23.8s-31.057,4.589-40.492,16.529-11.745,29.3-5.137,43.009c4.868,10.1,13.836,17.614,23.233,23.729A149.943,149.943,0,0,0,294.554,578.89" transform="translate(-165 -344.442)" fill="#f2f2f2"/>
    <path id="Path_109" data-name="Path 109" d="M214.557,483.959a245.333,245.333,0,0,1,34.189,33.95,248.841,248.841,0,0,1,26.962,39.9,247.82,247.82,0,0,1,11.546,24.447c.693,1.7-2.066,2.439-2.751.759a243.517,243.517,0,0,0-22.251-42.1,244.453,244.453,0,0,0-49.713-54.942c-1.425-1.16.6-3.168,2.018-2.018Z" transform="translate(-190.691 -350.278)" fill="#fff"/>
    <path id="Path_110" data-name="Path 110" d="M590.216,425.566H424.5V255.536a65.68,65.68,0,0,1,65.605-65.605h34.506a65.68,65.68,0,0,1,65.605,65.605Z" transform="translate(-306.683 -189.931)" fill="#f2f2f2"/>
    <path id="Path_111" data-name="Path 111" d="M555.711,425.568H424.5V255.539a65.1,65.1,0,0,1,12.529-38.566c.3-.411.6-.816.912-1.217A65.589,65.589,0,0,1,451.9,202.2c.3-.218.6-.432.905-.646a65.45,65.45,0,0,1,14.289-7.473c.3-.114.605-.228.911-.337a65.386,65.386,0,0,1,14.124-3.331c.3-.041.605-.073.912-.1a66.417,66.417,0,0,1,14.122,0c.306.032.612.064.914.105a65.372,65.372,0,0,1,14.12,3.33c.306.109.611.223.912.337a65.287,65.287,0,0,1,14.123,7.362c.3.209.61.424.911.638a66.288,66.288,0,0,1,8.346,7.066,65.516,65.516,0,0,1,5.777,6.606c.309.4.61.805.911,1.215a65.1,65.1,0,0,1,12.529,38.567Z" transform="translate(-306.683 -189.933)" fill="#ccc"/>
    <circle id="Ellipse_3" data-name="Ellipse 3" cx="7.264" cy="7.264" r="7.264" transform="translate(231.094 145.059)" fill="#d00c27"/>
    <path id="Path_112" data-name="Path 112" d="M584.721,481.965h-5.566l-2.648-21.47h8.215Z" transform="translate(-314.763 -251.422)" fill="#ffb8b8"/>
    <path id="Path_113" data-name="Path 113" d="M565.454,504.28h10.735v6.759H558.695a6.759,6.759,0,0,1,6.759-6.759Z" transform="translate(-305.038 -275.328)" fill="#2f2e41"/>
    <path id="Path_114" data-name="Path 114" d="M645.721,481.965h-5.566l-2.648-21.47h8.216Z" transform="translate(-348.068 -251.422)" fill="#ffb8b8"/>
    <path id="Path_115" data-name="Path 115" d="M626.454,504.28h10.735v6.759H619.695A6.759,6.759,0,0,1,626.454,504.28Z" transform="translate(-338.343 -275.328)" fill="#2f2e41"/>
    <path id="Path_116" data-name="Path 116" d="M697.086,457.234a4.877,4.877,0,0,1,2.048-7.193l18.922-52.152,9.31,5.081-21.6,49.838a4.9,4.9,0,0,1-8.676,4.426Z" transform="translate(-455.05 -303.473)" fill="#ffb8b8"/>
    <path id="Path_117" data-name="Path 117" d="M805.708,474.988a4.877,4.877,0,0,1-1.313-7.363l-5.861-55.167,10.6.484,2.436,54.264a4.9,4.9,0,0,1-5.857,7.781Z" transform="translate(-510.898 -311.427)" fill="#ffb8b8"/>
    <circle id="Ellipse_4" data-name="Ellipse 4" cx="11.151" cy="11.151" r="11.151" transform="translate(266.755 62.456)" fill="#ffb8b8"/>
    <path id="Path_118" data-name="Path 118" d="M773.752,447.818H740.133l.041-.262c.06-.391,5.992-39.245,1.617-51.956a5.363,5.363,0,0,1,2.756-6.621h0c6.253-2.944,18.255-6.57,28.385,2.229a12.819,12.819,0,0,1,4.295,10.622Z" transform="translate(-479.013 -296.804)" fill="#d00c27"/>
    <path id="Path_119" data-name="Path 119" d="M736.153,418.537l-15.135-3.07,7.095-16.812a6.355,6.355,0,1,1,12.306,3.177Z" transform="translate(-468.577 -301.287)" fill="#d00c27"/>
    <path id="Path_120" data-name="Path 120" d="M795.806,425.654,794.9,404.8c-.69-3.921,1.555-7.628,5.007-8.234s6.825,2.116,7.518,6.066l3.42,19.49Z" transform="translate(-508.845 -302.702)" fill="#d00c27"/>
    <path id="Path_121" data-name="Path 121" d="M770.455,517.049c5.409,20.6,6,46.8,4.54,75.367l-7.264-.908-13.167-54.482-7.264,55.39-8.172-.454c-2.441-29.979-4.819-55.715-.908-72.643Z" transform="translate(-476.835 -368.532)" fill="#2f2e41"/>
    <path id="Path_122" data-name="Path 122" d="M768.353,341.081a3.6,3.6,0,0,1-6.215-2,3.651,3.651,0,0,1,0-.706c.14-1.341.915-2.558.729-3.974a2.084,2.084,0,0,0-.381-.976c-1.658-2.22-5.549.993-7.114-1.017-.959-1.232.168-3.172-.568-4.55-.972-1.818-3.849-.921-5.654-1.916-2.008-1.108-1.888-4.188-.566-6.062a9.536,9.536,0,0,1,7.23-3.681,19.392,19.392,0,0,1,8.169,1.594c2.961,1.154,5.9,2.748,7.719,5.352,2.216,3.166,2.429,7.422,1.321,11.124C772.353,336.521,770.052,339.272,768.353,341.081Z" transform="translate(-483.1 -258.857)" fill="#2f2e41"/>
    <path id="Path_123" data-name="Path 123" d="M601.234,708.274h-335.2a.541.541,0,1,1,0-1.081h335.2a.541.541,0,0,1,0,1.081Z" transform="translate(-219.869 -472.347)" fill="#3f3d56"/>
    <path id="Path_124" data-name="Path 124" d="M559.473,435H500.451a2.935,2.935,0,0,1-2.951-2.913V300.343a2.935,2.935,0,0,1,2.951-2.913h59.022a2.936,2.936,0,0,1,2.951,2.913V432.085A2.936,2.936,0,0,1,559.473,435Z" transform="translate(-346.54 -248.624)" fill="#fff"/>
    <rect id="Rectangle_124" data-name="Rectangle 124" width="64.924" height="0.908" transform="translate(150.96 91.435)" fill="#ccc"/>
    <rect id="Rectangle_125" data-name="Rectangle 125" width="64.924" height="0.908" transform="translate(151.187 143.242)" fill="#ccc"/>
    <rect id="Rectangle_126" data-name="Rectangle 126" width="0.908" height="138.021" transform="translate(171.391 48.807)" fill="#ccc"/>
    <rect id="Rectangle_127" data-name="Rectangle 127" width="0.908" height="138.021" transform="translate(194.092 48.807)" fill="#ccc"/>
  </g>
</svg>
